<svg width="1309" height="480" viewBox="0 0 1309 480" fill="none" xmlns="http://www.w3.org/2000/svg">
<path d="M210.103 29.8974L29.8972 210.103C13.3854 226.615 13.3854 253.385 29.8972 269.897L210.103 450.103C226.614 466.614 253.385 466.614 269.897 450.103L450.102 269.897C466.614 253.385 466.614 226.615 450.102 210.103L269.897 29.8974C253.385 13.3856 226.614 13.3856 210.103 29.8974Z" fill="#F9A857"/>
<path d="M110.407 269.798V184.559H125.561V220.075C127.534 216.839 130.178 214.314 133.493 212.498C136.887 210.604 140.754 209.657 145.095 209.657C152.356 209.657 157.96 211.946 161.906 216.524C165.931 221.101 167.943 227.81 167.943 236.649V269.798H152.908V238.07C152.908 233.019 151.882 229.151 149.83 226.468C147.857 223.785 144.7 222.443 140.359 222.443C136.097 222.443 132.546 223.942 129.705 226.942C126.942 229.941 125.561 234.124 125.561 239.491V269.798H110.407ZM202.678 271.218C197.627 271.218 193.483 270.429 190.247 268.851C187.011 267.193 184.604 265.023 183.026 262.339C181.447 259.656 180.658 256.696 180.658 253.46C180.658 248.014 182.789 243.595 187.051 240.201C191.313 236.807 197.706 235.11 206.23 235.11H221.146V233.69C221.146 229.664 220.002 226.705 217.713 224.811C215.424 222.916 212.583 221.969 209.189 221.969C206.111 221.969 203.428 222.719 201.139 224.219C198.85 225.639 197.429 227.77 196.877 230.612H182.079C182.473 226.35 183.894 222.64 186.341 219.483C188.866 216.326 192.102 213.919 196.048 212.262C199.995 210.525 204.414 209.657 209.308 209.657C217.674 209.657 224.264 211.749 229.078 215.932C233.893 220.115 236.3 226.034 236.3 233.69V269.798H223.396L221.975 260.327C220.239 263.484 217.792 266.088 214.635 268.14C211.557 270.192 207.571 271.218 202.678 271.218ZM206.111 259.38C210.452 259.38 213.806 257.959 216.174 255.118C218.621 252.276 220.16 248.764 220.791 244.581H207.887C203.862 244.581 200.981 245.331 199.245 246.831C197.508 248.251 196.64 250.027 196.64 252.158C196.64 254.447 197.508 256.223 199.245 257.485C200.981 258.748 203.27 259.38 206.111 259.38ZM279.529 271.218C273.53 271.218 268.242 269.916 263.665 267.311C259.087 264.707 255.457 261.076 252.773 256.42C250.169 251.763 248.866 246.436 248.866 240.438C248.866 234.439 250.169 229.112 252.773 224.455C255.457 219.799 259.087 216.168 263.665 213.564C268.242 210.959 273.53 209.657 279.529 209.657C287.026 209.657 293.34 211.63 298.47 215.576C303.601 219.444 306.876 224.811 308.297 231.677H292.314C291.525 228.836 289.947 226.626 287.579 225.047C285.29 223.39 282.567 222.561 279.41 222.561C275.227 222.561 271.676 224.14 268.755 227.297C265.835 230.454 264.375 234.834 264.375 240.438C264.375 246.041 265.835 250.422 268.755 253.579C271.676 256.736 275.227 258.314 279.41 258.314C282.567 258.314 285.29 257.525 287.579 255.946C289.947 254.368 291.525 252.119 292.314 249.198H308.297C306.876 255.828 303.601 261.155 298.47 265.181C293.34 269.206 287.026 271.218 279.529 271.218ZM321.746 269.798V184.559H336.9V234.874L357.736 211.078H375.731L351.698 237.833L379.638 269.798H360.696L336.9 240.319V269.798H321.746Z" fill="white"/>
<path d="M528.312 289L565.176 188.2H585.912L622.776 289H603.192L595.128 265.672H555.816L547.608 289H528.312ZM560.856 251.272H590.088L575.4 209.368L560.856 251.272ZM675.643 290.728C665.467 290.728 656.731 288.568 649.435 284.248C642.139 279.832 636.523 273.736 632.587 265.96C628.651 258.088 626.683 249.016 626.683 238.744C626.683 228.472 628.651 219.4 632.587 211.528C636.523 203.656 642.139 197.512 649.435 193.096C656.731 188.68 665.467 186.472 675.643 186.472C687.739 186.472 697.627 189.496 705.307 195.544C713.083 201.496 717.931 209.896 719.851 220.744H699.547C698.299 215.272 695.611 211 691.483 207.928C687.451 204.76 682.075 203.176 675.355 203.176C666.043 203.176 658.747 206.344 653.467 212.68C648.187 219.016 645.547 227.704 645.547 238.744C645.547 249.784 648.187 258.472 653.467 264.808C658.747 271.048 666.043 274.168 675.355 274.168C682.075 274.168 687.451 272.728 691.483 269.848C695.611 266.872 698.299 262.792 699.547 257.608H719.851C717.931 267.976 713.083 276.088 705.307 281.944C697.627 287.8 687.739 290.728 675.643 290.728ZM736.167 289V188.2H758.055L790.167 252.136L821.847 188.2H843.735V289H825.303V219.448L797.223 274.6H782.679L754.599 219.448V289H736.167ZM902.265 289V188.2H914.361V232.696H966.633V188.2H978.729V289H966.633V242.632H914.361V289H902.265ZM1023.04 290.728C1017.09 290.728 1012.14 289.72 1008.21 287.704C1004.27 285.688 1001.34 283 999.424 279.64C997.504 276.28 996.544 272.632 996.544 268.696C996.544 261.4 999.328 255.784 1004.9 251.848C1010.46 247.912 1018.05 245.944 1027.65 245.944H1046.94V245.08C1046.94 238.84 1045.31 234.136 1042.05 230.968C1038.78 227.704 1034.42 226.072 1028.94 226.072C1024.24 226.072 1020.16 227.272 1016.7 229.672C1013.34 231.976 1011.23 235.384 1010.37 239.896H997.984C998.464 234.712 1000.19 230.344 1003.17 226.792C1006.24 223.24 1010.03 220.552 1014.54 218.728C1019.06 216.808 1023.86 215.848 1028.94 215.848C1038.93 215.848 1046.42 218.536 1051.41 223.912C1056.5 229.192 1059.04 236.248 1059.04 245.08V289H1048.24L1047.52 276.184C1045.5 280.216 1042.53 283.672 1038.59 286.552C1034.75 289.336 1029.57 290.728 1023.04 290.728ZM1024.91 280.504C1029.52 280.504 1033.46 279.304 1036.72 276.904C1040.08 274.504 1042.62 271.384 1044.35 267.544C1046.08 263.704 1046.94 259.672 1046.94 255.448V255.304H1028.66C1021.55 255.304 1016.51 256.552 1013.54 259.048C1010.66 261.448 1009.22 264.472 1009.22 268.12C1009.22 271.864 1010.56 274.888 1013.25 277.192C1016.03 279.4 1019.92 280.504 1024.91 280.504ZM1110.02 290.728C1103.2 290.728 1097.06 289.192 1091.59 286.12C1086.21 282.952 1081.94 278.584 1078.77 273.016C1075.7 267.352 1074.16 260.776 1074.16 253.288C1074.16 245.8 1075.7 239.272 1078.77 233.704C1081.94 228.04 1086.21 223.672 1091.59 220.6C1097.06 217.432 1103.2 215.848 1110.02 215.848C1118.47 215.848 1125.57 218.056 1131.33 222.472C1137.19 226.888 1140.88 232.792 1142.42 240.184H1130.03C1129.07 235.768 1126.72 232.36 1122.98 229.96C1119.23 227.464 1114.87 226.216 1109.87 226.216C1105.84 226.216 1102.05 227.224 1098.5 229.24C1094.95 231.256 1092.07 234.28 1089.86 238.312C1087.65 242.344 1086.55 247.336 1086.55 253.288C1086.55 259.24 1087.65 264.232 1089.86 268.264C1092.07 272.296 1094.95 275.368 1098.5 277.48C1102.05 279.496 1105.84 280.504 1109.87 280.504C1114.87 280.504 1119.23 279.304 1122.98 276.904C1126.72 274.408 1129.07 270.904 1130.03 266.392H1142.42C1140.98 273.592 1137.33 279.448 1131.47 283.96C1125.62 288.472 1118.47 290.728 1110.02 290.728ZM1159.31 289V185.32H1171.41V247.672L1200.64 217.576H1215.47L1183.79 249.832L1219.5 289H1204.1L1171.41 251.992V289H1159.31Z" fill="#333333"/>
</svg>
